10 GOTO 60
20 READ M1$,M2$,M3$:IF MF=1 THEN 40
30 M=(M+1)MOD 3:FOR Z=1 TO 3:PALETTE Z,P(M+Z):NEXT Z
40 REM IF PLAY(V)>2*MF+1 THEN 4
50 PLAY M1$,M2$,M3$:GOTO 20
60 CLEAR ,,,32768!:DEFINT A-Z:KEY OFF:ON ERROR GOTO 120:LOCATE 1,1,1,0,7:SCREEN 5
70 M=1:DIM P(5):FOR Z=0 TO 5:READ P(Z):NEXT Z:FOR Z=1 TO 13:PALETTE Z,0:NEXT Z
80 RESTORE 140:MF=VAL(ENVIRON$("MF")):V=1
90 BLOAD "BACH.BIN"
100 IF MF=1 THEN M=(M+1)MOD 12:FOR Z=1 TO 3:PALETTE Z,P(M+Z):NEXT Z:RESTORE 150:    V=0
110 GOSUB 20
120 IF PLAY(V)>0 THEN 120 ELSE FOR Z=1 TO 2000:NEXT Z:SYSTEM
130 DATA 00,13,05,04,13,05
135 REM DATA 00,13,05,01,13,05
140 DATA "mb","mb","mb"
150 DATA "v11 t120 o3 e-8 >e-8","v12 t120 o2 p4","v12 t120 o2 e-4"
160 DATA "o4 <f8 >e-8","o2 p4","o2 e-4"
170 DATA "o4 <g8 >e-8","o2 p4","o2 p4"
180 DATA "o4 <a-8 >e-8","o2 p4","o2 c4"
190 DATA "o4 <b-8 >e-8","o2 p4","o2 c4"
200 DATA "o4 c8 e-8","o2 p4","o2 p4"
210 DATA "o4 <b-16 >e-16 d16 c16","o2 p4","o1 g4"
220 DATA "o4 <b-16 >g16 f16 e-16","o2 p4","o1 a-4"
230 DATA "o4 d16 c16 <b-16 a-16","o2 p4","o1 b-4"
240 DATA "o3 g16 a-16 b-16 g16","o2 p4","o1 e-4"
250 DATA "o3 e-16 g16 b-16 >e-16","o2 p4","o1 g4"
260 DATA "o4 <f16 a16 >c16 e-16","o2 p4","o1 a4"
270 DATA "o4 d16 c16 d16 f16","o2 b-8 >b-8","o1 b-4"
280 DATA "o4 e-16 d16 e-16 g16","o3 c8 b-8","o1 b-4"
290 DATA "o4 f16 e-16 f16 a-16","o3 d8 b-8","o1 p4"
300 DATA "o4 g16 f16 g16 b-16","o3 e-8 b-8","o1 b-4"
310 DATA "o4 d16 c16 d16 b-16","o3 f8 b-8","o1 b-4"
320 DATA "o4 e-16 d16 e-16 b-16","o3 g8 b-8","o1 p4"
330 DATA "o4 d8 f8","o3 f16 b-16 a16 g16","o1 b-4"
340 DATA "o4 b-8 d8","o3 f16 >d16 c16 <b-16","o1 >d4"
350 DATA "o4 c8 a8","o3 a16 g16 f16 e-16","o2 f4"
360 DATA "o4 b-8 d8","o3 d16 e-16 f16 d16","o2 b-4"
370 DATA "o4 f8 d8","o3 <b-16 >d16 f16 b-16","o2 b-4"
380 DATA "o4 <b-8 >d8","o3 d16 f16 a-16 b-16","o2 p4"
390 DATA "o4 e-8 p8","o3 g16 f16 g16 b-16","o1 e-8 >e-8"
400 DATA "o4 e-8 p8","o3 a-16 g16 a-16 >c16","o2 <f8 >e-8"
410 DATA "o4 e-8 p8","o3 <b-16 a-16 b-16 >d-16","o2 <g8 >e-8"
420 DATA "o4 e-8 p8","o4 c16 <b-16 >c16 e-16","o2 <a-8 >e-8"
430 DATA "o4 e-8 p8","o4 <g16 f16 g16 >e-16","o2 <b-8 >e-8"
440 DATA "o4 e-8 p8","o4 <a-16 g16 a-16 >e-16","o2 c8 e-8"
450 DATA "o4 p16 e-16 f16 g16","o4 <g8 b-8","o2 <b-8 p8"
460 DATA "o4 a-16 b-16 >c16 <b-16","o3 >e-8 <g8","o1 >c8 p8"
470 DATA "o4 a-16 g16 f16 a-16","o3 f8 b-8","o2 d8 p8"
480 DATA "o4 g8 <b-8","o3 p16 e-16 f16 g16","o2 e-4"
490 DATA "o3 >c8 <a-8","o3 a-16 b-16 >c16 <b-16","o2 e-4"
500 DATA "o3 >f4","o3 a-16 g16 f16 a-16","o2 d4"
510 DATA "o4 p16 a-16 g16 f16","o3 g8 <b-8","o2 e-4"
520 DATA "o4 e-16 d16 c16 <b-16","o2 >c8 <a-8","o2 a-4"
530 DATA "o3 a-16 g16 a-16 >f16","o2 >f4","o2 p4"
540 DATA "o4 <g16 >f16 e-16 d16","o3 p16 a-16 g16 f16","o2 <b4"
550 DATA "o4 c16 <b-16 a-16 g16","o3 e-16 d16 c16 <b-16","o1 >c4"
560 DATA "o3 f4","o2 a-16 g16 a-16 >f16","o2 d4"
570 DATA "o3 p16 a-16 g16 f16","o3 <g16 >f16 e-16 d16","o2 <e-4"
580 DATA "o3 e-4","o3 c16 <b-16 a-16 g16","o1 a-4"
590 DATA "o3 p16 d16 e-16 f16","o2 f4","o1 a-4"
600 DATA "o3 <b8 >d8","o2 p16 a-16 g16 f16","o1 g4"
610 DATA "o3 g8 b8","o2 e-8 g8","o1 p16 >g16 f16 g16"
620 DATA "o3 >c8 d8","o2 a8 b8","o2 e-16 f16 d16 e-16"
630 DATA "o4 e-16 c16 <b16 >c16","o3 c8 p8","o2 c8 e-8"
640 DATA "o4 <g16 >c16 <b16 >c16","o3 p4","o2 c8 e-8"
650 DATA "o4 e-16 c16 <b-16 >c16","o3 p4","o2 c8 e-8"
660 DATA "o4 <a-8 p8","o3 p16 f16 e-16 f16","o2 <f8 >a-8"
670 DATA "o3 >e-8 p8","o3 c16 f16 e-16 f16","o2 <f8 >a-8"
680 DATA "o4 e-8 p8","o3 a-16 f16 e-16 f16","o2 <f8 >a-8"
690 DATA "o4 p16 <b-16 a-16 b-16","o3 d8 p8","o2 <b-8 >d8"
700 DATA "o3 f16 b-16 a-16 b-16","o3 a-8 p8","o2 <b-8 >d8"
710 DATA "o3 >d16 <b-16 a-16 b-16","o3 a-8 p8","o2 <b-8 >d8"
720 DATA "o3 g8 p8","o3 p16 e-16 d-16 e-16","o2 <e-8 >g8"
730 DATA "o3 >d-8 p8","o3 <b-16 >e-16 d-16 e-16","o2 <e-8 >g8"
740 DATA "o4 d-8 p8","o3 g16 e-16 d-16 e-16","o2 <e-8 g8"
750 DATA "o3 p16 a-16 g16 a-16","o3 c16 f16 e16 f16","o1 a-8 >c8"
760 DATA "o3 f16 a-16 g16 a-16","o3 c16 f16 e16 f16","o2 <a-8 >c8"
770 DATA "o3 >c16 <a-16 g16 a-16","o3 a-16 f16 e-16 f16","o2 <a-8 >c8"
780 DATA "o3 f16 b-16 a-16 b-16","o3 d8 f8","o2 <a-8 >d8"
790 DATA "o3 >d16 <b-16 a-16 b-16","o3 b-4","o2 <a-8 >d8"
800 DATA "o3 >f16 d16 c16 d16","o3 b-4","o2 <a-8 >d8"
810 DATA "o4 b-8 g8","o3 p16 <b-16 a-16 b-16","o2 <g8 >e-8"
820 DATA "o4 e-4","o2 >e-16 <b-16 a-16 b-16","o2 <g8 >e-8"
830 DATA "o4 e-4","o2 >g16 e-16 d16 e-16","o2 <g8 >e-8"
840 DATA "o4 p16 d16 c16 <b-16","o3 a16 b-16 a16 g16","o2 <f4"
850 DATA "o3 a16 b-16 a16 g16","o3 f16 >d16 c16 <b-16","o1 p4"
860 DATA "o3 f16 >e-16 d16 c16","o3 a16 g16 f16 e-16","o1 p4"
870 DATA "o3 b-4","o3 d16 c16 d16 f16","o1 b-8 >b-8"
880 DATA "o3 b-4","o3 e-16 d16 e-16 g16","o2 c8 b-8"
890 DATA "o3 b-4","o3 f16 e-16 f16 a-16","o2 d8 b-8"
900 DATA "o3 p16 a16 b-16 >e-16","o3 g16 f16 g16 b-16","o2 e-8 b-8"
910 DATA "o4 <b-16 a16 b-16 >d16","o3 d16 c16 d16 b-16","o2 f8 b-8"
920 DATA "o4 c4","o3 e-16 d16 e-16 b-16","o2 g8 b-8"
930 DATA "o4 p16 g16 f16 e-16","o3 d4","o2 f8 b-8"
940 DATA "o4 d16 b-16 a16 g16","o3 p16 >d16 c16 <b-16","o2 e-8 b-8"
950 DATA "o4 f16 e-16 d16 c16","o3 a16 g16 f16 e-16","o2 f8 a8"
960 DATA "o3 b-8 >f8","o3 d16 b-16 a16 b-16","o1 b-4"
970 DATA "o4 g8 f8","o3 e-16 b-16 d16 b-16","o1 p4"
980 DATA "o4 g8 f8","o3 e-16 b-16 c16 b-16","o1 p4"
990 DATA "o4 f16 b-16 a16 b-16","o3 d8 f8","o1 b-4"
1000 DATA "o4 e-16 b-16 d16 b-16","o3 g8 f8","o1 p4"
1010 DATA "o4 e-16 b-16 c16 b-16","o3 g8 e-8","o1 p4"
1020 DATA "o4 d4","o3 f16 <b-16 >c16 d16","o1 p8 >f8"
1030 DATA "o4 p16 <b-16 >c16 d16","o3 e-4","o2 g8 f8"
1040 DATA "o4 e-16 f16 g16 a16","o3 p16 d16 e-16 c16","o2 g8 e-8"
1050 DATA "o4 b-8 <b-8","o3 f8 d8","o2 d8 g8"
1060 DATA "o3 >c8 p8","o3 e-8 p8","o2 e-8 p8"
1070 DATA "o4 <a4","o3 c4","o2 f4"
1080 DATA "o3 mlb-4","o3 mld4","o1 mlb-4"
1090 DATA "o3 b-4","o3 d4","o1 b-4"
1100 DATA "o3 b-4","o3 d4","o1 b-4"
